<?xml version="1.0" encoding="utf-8"?>
<!-- Generator: Adobe Illustrator 25.2.1, SVG Export Plug-In . SVG Version: 6.00 Build 0)  -->
<svg version="1.1" id="Layer_1" xmlns="http://www.w3.org/2000/svg" xmlns:xlink="http://www.w3.org/1999/xlink" x="0px" y="0px"
	 viewBox="0 0 1000 1000" style="enable-background:new 0 0 1000 1000;" xml:space="preserve">
<style type="text/css">
	.st0{fill:url(#SVGID_1_);}
	.st1{fill:url(#SVGID_2_);}
	.st2{fill:url(#SVGID_3_);}
	.st3{fill:url(#SVGID_4_);}
	.st4{fill:#FFFFFF;}
	.st5{fill:#B66228;}
	.st6{fill:#A65A27;}
	.st7{fill:#FFFBF9;}
	.st8{fill:#FFFDFC;}
	.st9{fill:#FEFFFA;}
	.st10{fill:#B26027;}
	.st11{fill:#FDFCF5;}
	.st12{fill:#B75F23;}
</style>
<g>
	<linearGradient id="SVGID_1_" gradientUnits="userSpaceOnUse" x1="435.1624" y1="616.3969" x2="700" y2="616.3969">
		<stop  offset="0" style="stop-color:#B2652B"/>
		<stop  offset="0.2695" style="stop-color:#B4662B"/>
		<stop  offset="0.4063" style="stop-color:#BC692A"/>
		<stop  offset="0.513" style="stop-color:#C96F29"/>
		<stop  offset="0.6041" style="stop-color:#DC7727"/>
		<stop  offset="0.6044" style="stop-color:#DC7727"/>
		<stop  offset="0.6674" style="stop-color:#D57327"/>
		<stop  offset="1" style="stop-color:#B56127"/>
	</linearGradient>
	<path class="st0" d="M664.38,833.87c-28.46-10.88-231.05,26.94-225.19-28.24c13.44-20.52-33.69-424.26,31.58-406.7
		c28.48,10.88,231.07-26.94,225.21,28.25C682.53,447.69,729.66,851.43,664.38,833.87z"/>
	<linearGradient id="SVGID_2_" gradientUnits="userSpaceOnUse" x1="441.8546" y1="815.0369" x2="694.6702" y2="815.0369">
		<stop  offset="0" style="stop-color:#B2652B"/>
		<stop  offset="0.2695" style="stop-color:#B4662B"/>
		<stop  offset="0.4063" style="stop-color:#BC692A"/>
		<stop  offset="0.513" style="stop-color:#C96F29"/>
		<stop  offset="0.6041" style="stop-color:#DC7727"/>
		<stop  offset="0.6044" style="stop-color:#DC7727"/>
		<stop  offset="0.6674" style="stop-color:#D57327"/>
		<stop  offset="1" style="stop-color:#B56127"/>
	</linearGradient>
	<path class="st1" d="M694.62,815.04c4.31-49.31-257.04-49.31-252.71,0.01C437.6,864.34,698.94,864.34,694.62,815.04z"/>
	<linearGradient id="SVGID_3_" gradientUnits="userSpaceOnUse" x1="441.5077" y1="420.0981" x2="694.3232" y2="420.0981">
		<stop  offset="0" style="stop-color:#B2652B"/>
		<stop  offset="0.2695" style="stop-color:#B4662B"/>
		<stop  offset="0.4063" style="stop-color:#BC692A"/>
		<stop  offset="0.513" style="stop-color:#C96F29"/>
		<stop  offset="0.6041" style="stop-color:#DC7727"/>
		<stop  offset="0.6044" style="stop-color:#DC7727"/>
		<stop  offset="0.6674" style="stop-color:#D57327"/>
		<stop  offset="1" style="stop-color:#B56127"/>
	</linearGradient>
	<path class="st2" d="M694.27,420.1c4.31-49.31-257.04-49.31-252.71,0.01C437.25,469.41,698.6,469.41,694.27,420.1z"/>
	<linearGradient id="SVGID_4_" gradientUnits="userSpaceOnUse" x1="517.8823" y1="376.4549" x2="623.2126" y2="376.4549">
		<stop  offset="0.3799" style="stop-color:#B2652B"/>
		<stop  offset="0.4799" style="stop-color:#B9682A"/>
		<stop  offset="0.6249" style="stop-color:#CC7028"/>
		<stop  offset="0.7161" style="stop-color:#DC7727"/>
		<stop  offset="0.748" style="stop-color:#D57327"/>
		<stop  offset="0.9162" style="stop-color:#B56127"/>
	</linearGradient>
	<path class="st3" d="M615.67,353.97c-5.46,2.85-101.17-6.76-97.68,6.2c0,0,0,32.55,0,32.55c-3.8,12.89,92.58,3.47,97.68,6.21
		c13.06,1,4.7-33.23,6.94-38.75C622.61,356.75,619.5,353.97,615.67,353.97z"/>
	<rect x="642.99" y="447.52" class="st4" width="31.25" height="377.84"/>
	<path class="st5" d="M618.53,395.28"/>
	<path class="st4" d="M632.12,419.58c0,0,31.34,5.83,36.24,12.82c8.04,21.1,16.48,60.18-26.45,38.46
		C641.91,470.87,640.93,426.57,632.12,419.58z"/>
	<path class="st4" d="M571.66,841.57c0,0,79.48-0.27,102.58-16.21C613.17,823.4,647.94,834.48,571.66,841.57z"/>
	<g>
		<rect x="553.32" y="149.87" class="st6" width="29.89" height="201.68"/>
		<path class="st7" d="M579.13,347.9c-9.64,7.64-1.55-195.83-4.08-195.6C584.7,144.66,576.61,348.13,579.13,347.9z"/>
		<g>
			<path class="st6" d="M562.83,193.61c-25.14,0.34-22.11,3-21.74-19.44C566.23,173.82,563.2,171.16,562.83,193.61z"/>
			<path class="st8" d="M565.54,181.46c-2.31-1.29-24.66,3.39-20.38-3.64C547.48,179.1,569.83,174.43,565.54,181.46z"/>
		</g>
		<path class="st5" d="M547.88,128h40.76l-5.62,19.44C557.04,146.12,554.24,155.05,547.88,128z"/>
		<path class="st9" d="M584.12,130.43l-3.85,14.29c-7.29,3.86-2.57-12.31-3.85-14.3C576.41,130.43,584.12,130.43,584.12,130.43z"/>
	</g>
	<g>
		<path class="st10" d="M533.43,198.47c-19.11,4.5-11.21-16.96-12.72-25.95c-0.04-6.54,17.7-6.52,17.66,0
			C536.84,176.51,542.59,199.06,533.43,198.47z"/>
		<path class="st11" d="M535.65,171.74c-4.66,0.8-14.67-2.9-12.23,4.86C528.09,175.79,538.1,179.5,535.65,171.74z"/>
	</g>
	<g>
		<path class="st12" d="M513.05,203.32c-25.78,5.06-12.32-23.1-15.44-35.67c0.01-6.7,20.37-6.65,20.38,0
			C516.1,171.6,522.81,204.32,513.05,203.32z"/>
		<path class="st11" d="M514.86,168.04h-14.11c-2.46,10.04,7.53,5.48,14.11,6.42C514.86,174.46,514.86,168.04,514.86,168.04z"/>
	</g>
	<g>
		<path class="st10" d="M489.95,198.47c-19.11,4.5-11.21-16.96-12.72-25.95c-0.04-6.54,17.7-6.52,17.66,0
			C493.36,176.51,499.12,199.06,489.95,198.47z"/>
		<path class="st11" d="M492.18,171.74c-4.66,0.8-14.67-2.9-12.23,4.86C484.61,175.79,494.62,179.5,492.18,171.74z"/>
	</g>
	<g>
		<rect x="287.86" y="196.67" class="st6" width="21.74" height="204.69"/>
		<path class="st8" d="M296.01,201.66c-2.54,0.63,5.58,201.46-4.07,194.54C294.48,395.56,286.36,194.73,296.01,201.66z"/>
	</g>
	<path class="st6" d="M312.84,193.61c0,0-3.76,0.05-3.24,3.06c0.52,3.01-21.74,0-21.74,0s-2.2-22.5,24.98-22.5
		C340.01,174.17,312.84,193.61,312.84,193.61z"/>
	<g>
		<rect x="312.84" y="174.17" class="st6" width="161.68" height="19.44"/>
		<path class="st8" d="M470.57,181.46c-0.63-2.21-161.34,4.9-153.67-3.64C317.54,180.02,478.25,172.91,470.57,181.46z"/>
	</g>
	<path class="st4" d="M291.94,200.19c0,0-2.2-23.6,24.98-22.38c27.17,1.21,0,3.64,0,3.64C285.03,177.6,300.95,227.57,291.94,200.19z
		"/>
	<g>
		<polygon class="st6" points="304.7,412.99 173.95,548.8 157.47,536.12 288.22,400.31 		"/>
		<path class="st8" d="M291.21,408.38L166.95,537.45C156.04,538.81,291.07,398.55,291.21,408.38z"/>
	</g>
	<path class="st6" d="M299.47,418.42c5.04-2.91,11.8-16.19,10.64-23.14c0,0-9.51,3.65-9.51,3.65s-12.75,0-12.75,0L299.47,418.42z"/>
</g>
</svg>
